<svg width="41" height="42" viewBox="0 0 41 42" fill="none" xmlns="http://www.w3.org/2000/svg">
<g clip-path="url(#clip0_4_4370)">
<path d="M38.2838 16.997L36.0047 16.5966C35.7186 15.6818 35.3518 14.7943 34.9085 13.9444L36.2362 12.0522C37.1534 10.7475 36.9986 8.97198 35.8694 7.84569L34.1213 6.09758C32.995 4.9684 31.2195 4.81361 29.9148 5.73082L28.0217 7.05852C27.1719 6.61521 26.2844 6.24837 25.3696 5.96225L24.9692 3.68322C24.6935 2.11337 23.3303 0.968256 21.7364 0.967776H19.2636C17.6684 0.965934 16.3036 2.11249 16.03 3.68403L15.6297 5.96225C14.7148 6.24829 13.8273 6.61513 12.9775 7.05852L11.0852 5.73082C9.7805 4.81361 8.00501 4.9684 6.87871 6.09758L5.12981 7.84649C4.00063 8.97279 3.84583 10.7483 4.76305 12.053L6.08994 13.9452C5.64663 14.7951 5.27979 15.6826 4.99367 16.5974L2.71545 16.9978C1.14424 17.2717 -0.00183958 18.6365 2.2167e-06 20.2314V22.7042C0.000162373 24.2986 1.14576 25.6624 2.71625 25.9377L4.99447 26.3381C5.28051 27.2529 5.64735 28.1405 6.09074 28.9903L4.76305 30.8826C3.84583 32.1873 4.00063 33.9628 5.12981 35.0891L6.87871 36.838C8.00501 37.9672 9.7805 38.1219 11.0852 37.2047L12.9775 35.8778C13.8273 36.3212 14.7148 36.6881 15.6297 36.9741L16.03 39.2531C16.3042 40.824 17.669 41.9697 19.2636 41.9678H21.7364C23.3312 41.9696 24.6961 40.8235 24.97 39.2523C25.0695 38.686 24.6911 38.1463 24.1247 38.0467C23.5584 37.9472 23.0187 38.3257 22.9192 38.892C22.8184 39.4665 22.3196 39.8856 21.7364 39.8857H19.2636C18.6801 39.886 18.1808 39.4668 18.08 38.892L17.5683 35.9747C17.499 35.577 17.2059 35.2552 16.8164 35.1491C15.6329 34.8324 14.4957 34.3624 13.4339 33.751C13.0825 33.5474 12.6448 33.5668 12.3128 33.8006L9.89045 35.4999C9.41279 35.8347 8.76367 35.7779 8.35135 35.3653L6.60244 33.6164C6.18988 33.2041 6.13311 32.555 6.46791 32.0773L8.16797 29.6558C8.4018 29.3238 8.42118 28.8861 8.21762 28.5347C7.60574 27.4727 7.13512 26.3352 6.81785 25.1514C6.71311 24.7603 6.39104 24.4654 5.99225 24.3954L3.0758 23.8837C2.50252 23.7832 2.0838 23.2862 2.08203 22.7042V20.2314C2.08219 19.6482 2.50132 19.1494 3.0758 19.0486L5.99305 18.5369C6.39072 18.4672 6.71215 18.1738 6.81785 17.7842C7.13496 16.6004 7.60526 15.463 8.21682 14.4009C8.42038 14.0495 8.401 13.6118 8.16717 13.2798L6.46791 10.8582C6.13311 10.3806 6.18988 9.73145 6.60244 9.31912L8.35135 7.57022C8.76367 7.15765 9.41279 7.10088 9.89045 7.43569L12.312 9.13575C12.644 9.36957 13.0817 9.38895 13.4331 9.18539C14.4951 8.57368 15.6325 8.10338 16.8164 7.78643C17.2075 7.68161 17.5024 7.35961 17.5723 6.96082L18.084 4.04358C18.1845 3.4703 18.6816 3.05157 19.2636 3.04981H21.7364C22.3199 3.04957 22.8192 3.46878 22.92 4.04358L23.4317 6.96082C23.501 7.35857 23.7941 7.68033 24.1836 7.78643C25.3672 8.10362 26.5043 8.57392 27.5661 9.18539C27.9175 9.38895 28.3552 9.36957 28.6872 9.13575L31.1096 7.43649C31.5872 7.10168 32.2363 7.15846 32.6487 7.57102L34.3976 9.31992C34.8101 9.73225 34.8669 10.3814 34.5321 10.859L32.832 13.2806C32.5982 13.6126 32.5788 14.0503 32.7824 14.4017C33.3938 15.4635 33.8641 16.6006 34.1814 17.7842C34.2864 18.175 34.6084 18.4695 35.007 18.5393L37.9242 19.051C38.4978 19.1516 38.9166 19.649 38.918 20.2314V22.7042C38.9182 23.2877 38.499 23.787 37.9242 23.8877C37.3579 23.9873 36.9794 24.527 37.079 25.0933C37.1785 25.6596 37.7182 26.0381 38.2846 25.9385C39.856 25.6646 41.0022 24.2993 41 22.7042V20.2314C41.0002 18.6367 39.8545 17.2724 38.2838 16.997Z" fill="#91C300"/>
<path d="M38.0427 32.3207L31.3834 25.4588C30.5127 24.5663 30.0764 23.3373 30.1895 22.0955C30.6674 16.6283 26.6229 11.8089 21.1557 11.331C20.5752 11.2802 19.9914 11.2806 19.411 11.3322C18.9561 11.3692 18.5287 11.5647 18.2034 11.8847C17.4118 12.6633 17.3996 13.9355 18.1762 14.7291L21.0454 17.6544C21.6285 18.2483 21.6198 19.2024 21.0258 19.7856C21.0257 19.7857 21.0255 19.7859 21.0253 19.786L18.804 21.965C18.2097 22.5475 17.2558 22.5382 16.6731 21.9441L13.8039 19.0189C13.0254 18.2273 11.7531 18.2151 10.9595 18.9917C10.6329 19.3108 10.4288 19.7345 10.383 20.1888C9.79262 25.645 13.7372 30.5466 19.1933 31.137C19.773 31.1997 20.3571 31.2113 20.9389 31.1715C22.1799 31.0825 23.3978 31.5406 24.2725 32.4256L30.9278 39.2827C31.3283 39.6953 31.9874 39.7052 32.4 39.3047C32.8127 38.9042 32.8225 38.2451 32.4221 37.8324L25.7628 30.9714C24.4618 29.6498 22.6478 28.9637 20.7979 29.0935C16.4699 29.3901 12.721 26.1221 12.4244 21.7941C12.3971 21.3955 12.4002 20.9954 12.4338 20.5972L15.1852 23.4C15.8505 24.0818 16.7608 24.469 17.7133 24.4754H17.7485C18.6879 24.4783 19.5903 24.1102 20.2598 23.4512L22.4812 21.2723C23.8961 19.8842 23.918 17.612 22.53 16.1969L19.7785 13.3942C24.1074 13.1114 27.8459 16.3915 28.1288 20.7203C28.1548 21.1192 28.1504 21.5195 28.1155 21.9177C27.9497 23.7626 28.5992 25.5877 29.8933 26.913L36.5486 33.7709C36.949 34.1835 37.6082 34.1934 38.0208 33.7929C38.4334 33.3924 38.4432 32.7333 38.0427 32.3207Z" fill="#91C300"/>
</g>
<defs>
<clipPath id="clip0_4_4370">
<rect width="41" height="41" fill="white" transform="translate(0 0.967773)"/>
</clipPath>
</defs>
</svg>
